<svg width="512" height="512" viewBox="0 0 512 512" fill="none" xmlns="http://www.w3.org/2000/svg">
  <path d="M188 184c0-37.6 30.4-68 68-68s68 30.4 68 68c0 20.4-9 38.7-23.2 51.1" stroke="#0F172A" stroke-width="22" stroke-linecap="round" stroke-linejoin="round"/>
  <path d="M156 404c0-56.3 44.7-102 100-102s100 45.7 100 102" stroke="#0F172A" stroke-width="22" stroke-linecap="round" stroke-linejoin="round"/>
  <path d="M192 158c12.8-21.2 36.1-35.3 62-35.3 40.1 0 72.5 32.4 72.5 72.5 0 4.5-.4 8.9-1.3 13.1-6.9-12.8-17.3-23.4-30.3-30.6-10.8-6-23.1-9.4-36.1-9.4-23.3 0-44.5 9.4-59.8 24.6-1.8-10.9.2-22.4 4-34.9Z" fill="#60A5FA"/>
  <path d="M189 174c14.9-16.3 36.2-26.5 60-26.5 40.2 0 72.9 32.7 72.9 72.9 0 4.9-.5 9.7-1.5 14.3-7.1-13.5-18.1-24.7-31.7-32.2-11.1-6.1-23.9-9.6-37.5-9.6-25.2 0-48 10.1-64.8 26.5-1.5-11.8.5-23.7 2.6-45.4Z" fill="#DBEAFE" opacity=".95"/>
  <path d="M198 316c16.1-22.1 40.3-35.7 66-35.7s49.9 13.6 66 35.7" stroke="#60A5FA" stroke-width="18" stroke-linecap="round" stroke-linejoin="round"/>
</svg>
